<svg xmlns:mydata="http://www.w3.org/2000/svg" mydata:contrastcolor="fff0f3" mydata:template="Contrast" mydata:presentation="2.5" mydata:layouttype="undefined" mydata:specialfontid="undefined" mydata:id1="595" mydata:id2="155" mydata:companyname="Core Zip Code" mydata:companytagline="" version="1.1" xmlns="http://www.w3.org/2000/svg" xmlns:xlink="http://www.w3.org/1999/xlink" viewBox="0 0 550 470"><g fill="#ff6a13" fill-rule="none" stroke="none" stroke-width="1" stroke-linecap="butt" stroke-linejoin="miter" stroke-miterlimit="10" stroke-dasharray="" stroke-dashoffset="0" font-family="none" font-weight="none" font-size="none" text-anchor="none" style="mix-blend-mode: normal"><g data-paper-data="{&quot;isGlobalGroup&quot;:true,&quot;bounds&quot;:{&quot;x&quot;:82.9466127742237,&quot;y&quot;:166.19143069947836,&quot;width&quot;:384.1067744515526,&quot;height&quot;:137.6171386010434}}"><g data-paper-data="{&quot;stacked&quot;:true,&quot;isPrimaryText&quot;:true}" fill-rule="nonzero"><path d="M212.33094,217.59088c-8.27359,0 -14.98367,-6.71008 -14.98367,-14.98367c0,-8.27359 6.71008,-14.98367 14.98367,-14.98367c5.21171,0 9.77196,2.671 12.44296,6.64493l3.84364,-7.62213c-4.16937,-4.23452 -9.90225,-6.84037 -16.2866,-6.84037c-12.57326,0 -22.80124,10.22799 -22.80124,22.80124c0,12.57326 10.22799,22.80124 22.80124,22.80124c6.38435,0 12.11723,-2.60586 16.2866,-6.84037l-3.84364,-7.62213c-2.671,3.97393 -7.23125,6.64493 -12.44296,6.64493z" data-paper-data="{&quot;glyphName&quot;:&quot;C&quot;,&quot;glyphIndex&quot;:0,&quot;firstGlyphOfWord&quot;:true,&quot;word&quot;:1,&quot;line&quot;:1,&quot;firstGlyphOfFirstLine&quot;:true}"></path><path d="M256.6305,179.80596c-12.57326,0 -22.80124,10.22799 -22.80124,22.80124c0,12.57326 10.22799,22.80124 22.80124,22.80124c12.57326,0 22.80124,-10.22799 22.80124,-22.80124c0,-12.57326 -10.22799,-22.80124 -22.80124,-22.80124zM256.6305,217.59088c-8.27359,0 -14.98367,-6.71008 -14.98367,-14.98367c0,-8.27359 6.71008,-14.98367 14.98367,-14.98367c8.27359,0 14.98367,6.71008 14.98367,14.98367c0,8.27359 -6.71008,14.98367 -14.98367,14.98367z" data-paper-data="{&quot;glyphName&quot;:&quot;O&quot;,&quot;glyphIndex&quot;:1,&quot;word&quot;:1,&quot;line&quot;:1}"></path><path d="M318.51958,196.74403c0,-8.9902 -7.2964,-16.2866 -16.2866,-16.2866h-16.2866v44.29956h7.81757v-11.72635h6.44949l8.59933,11.72635h9.70681l-9.64167,-13.15957c5.66774,-2.54071 9.64167,-8.20845 9.64167,-14.85338zM293.76395,188.27499h8.46903c4.69054,0 8.46903,3.77849 8.46903,8.46903c0,4.69054 -3.77849,8.46903 -8.46903,8.46903h-8.46903z" data-paper-data="{&quot;glyphName&quot;:&quot;R&quot;,&quot;glyphIndex&quot;:2,&quot;word&quot;:1,&quot;line&quot;:1}"></path><path d="M333.50326,216.93941v-10.42342h16.93807v-7.81757h-16.93807v-10.42342h16.93807l3.90878,-7.81757h-28.66442v44.29956h28.66442l-3.90878,-7.81757z" data-paper-data="{&quot;glyphName&quot;:&quot;E&quot;,&quot;glyphIndex&quot;:3,&quot;lastGlyphOfWord&quot;:true,&quot;word&quot;:1,&quot;line&quot;:1,&quot;lastGlyphOfFirstLine&quot;:true}"></path><path d="M202.55898,281.72501l19.54392,-36.48199h-32.5732l3.90878,7.81757h15.63514l-19.54392,36.48199h32.5732l-3.90878,-7.81757z" data-paper-data="{&quot;glyphName&quot;:&quot;Z&quot;,&quot;glyphIndex&quot;:4,&quot;firstGlyphOfWord&quot;:true,&quot;word&quot;:2,&quot;line&quot;:2,&quot;firstGlyphOfSecondLine&quot;:true}"></path><path d="M236.43511,289.54258v-44.29956h-7.81757v44.29956z" data-paper-data="{&quot;glyphName&quot;:&quot;I&quot;,&quot;glyphIndex&quot;:5,&quot;word&quot;:2,&quot;line&quot;:2}"></path><path d="M260.53928,245.24302h-16.2866v44.29956h7.81757v-11.72635h8.46903c8.9902,0 16.2866,-7.2964 16.2866,-16.2866c0,-8.9902 -7.2964,-16.2866 -16.2866,-16.2866zM260.53928,269.99865h-8.46903v-16.93807h8.46903c4.69054,0 8.46903,3.77849 8.46903,8.46903c0,4.69054 -3.77849,8.46903 -8.46903,8.46903z" data-paper-data="{&quot;glyphName&quot;:&quot;P&quot;,&quot;glyphIndex&quot;:6,&quot;lastGlyphOfWord&quot;:true,&quot;word&quot;:2,&quot;line&quot;:2}"></path><path d="M317.86812,282.37647c-8.27359,0 -14.98367,-6.71008 -14.98367,-14.98367c0,-8.27359 6.71008,-14.98367 14.98367,-14.98367c5.21171,0 9.77196,2.671 12.44296,6.64493l3.84364,-7.62213c-4.16937,-4.23452 -9.90225,-6.84037 -16.2866,-6.84037c-12.57326,0 -22.80124,10.22799 -22.80124,22.80124c0,12.57326 10.22799,22.80124 22.80124,22.80124c6.38435,0 12.11723,-2.60586 16.2866,-6.84037l-3.84364,-7.62213c-2.671,3.97393 -7.23125,6.64493 -12.44296,6.64493z" data-paper-data="{&quot;glyphName&quot;:&quot;C&quot;,&quot;glyphIndex&quot;:7,&quot;firstGlyphOfWord&quot;:true,&quot;word&quot;:2,&quot;line&quot;:2}"></path><path d="M362.16767,244.59156c-12.57326,0 -22.80124,10.22799 -22.80124,22.80124c0,12.57326 10.22799,22.80124 22.80124,22.80124c12.57326,0 22.80124,-10.22799 22.80124,-22.80124c0,-12.57326 -10.22799,-22.80124 -22.80124,-22.80124zM362.16767,282.37647c-8.27359,0 -14.98367,-6.71008 -14.98367,-14.98367c0,-8.27359 6.71008,-14.98367 14.98367,-14.98367c8.27359,0 14.98367,6.71008 14.98367,14.98367c0,8.27359 -6.71008,14.98367 -14.98367,14.98367z" data-paper-data="{&quot;glyphName&quot;:&quot;O&quot;,&quot;glyphIndex&quot;:8,&quot;word&quot;:2,&quot;line&quot;:2}"></path><path d="M409.72455,245.24302h-18.24099v44.29956h18.24099c12.24752,0 22.14978,-9.90225 22.14978,-22.14978c0,-12.24752 -9.90225,-22.14978 -22.14978,-22.14978zM409.72455,281.72501h-10.42342v-28.66442h10.42342c7.88272,0 14.33221,6.44949 14.33221,14.33221c0,7.94786 -6.44949,14.33221 -14.33221,14.33221z" data-paper-data="{&quot;glyphName&quot;:&quot;D&quot;,&quot;glyphIndex&quot;:9,&quot;word&quot;:2,&quot;line&quot;:2}"></path><path d="M446.20654,281.72501v-10.42342h16.93807v-7.81757h-16.93807v-10.42342h16.93807l3.90878,-7.81757h-28.66442v44.29956h28.66442l-3.90878,-7.81757z" data-paper-data="{&quot;glyphName&quot;:&quot;E&quot;,&quot;glyphIndex&quot;:10,&quot;lastGlyphOfWord&quot;:true,&quot;word&quot;:2,&quot;line&quot;:2,&quot;lastGlyphOfSecondLine&quot;:true}"></path></g><g data-paper-data="{&quot;isIcon&quot;:&quot;true&quot;,&quot;iconType&quot;:&quot;icon&quot;,&quot;rawIconId&quot;:&quot;106448&quot;,&quot;selectedEffects&quot;:{&quot;container&quot;:&quot;&quot;,&quot;transformation&quot;:&quot;&quot;,&quot;pattern&quot;:&quot;&quot;},&quot;combineTerms&quot;:&quot;pin&quot;,&quot;isDetailed&quot;:false,&quot;fillRule&quot;:&quot;evenodd&quot;,&quot;bounds&quot;:{&quot;x&quot;:82.9466127742237,&quot;y&quot;:166.19143069947836,&quot;width&quot;:77.85002607996847,&quot;height&quot;:137.6171386010434},&quot;iconStyle&quot;:&quot;standalone&quot;,&quot;suitableAsStandaloneIcon&quot;:true}" fill-rule="evenodd"><path d="M82.94662,205.12179c0,-21.49427 17.42386,-38.93036 38.92425,-38.93036c21.50039,0 38.92425,17.43609 38.92577,38.9273c0,1.11164 -0.05964,2.19576 -0.15597,3.28599c-0.03058,0.38686 -0.07798,0.78901 -0.12538,1.16516c-0.06881,0.65597 -0.17279,1.30125 -0.27218,1.94193c-0.0841,0.51377 -0.17431,1.01684 -0.27523,1.51379c-0.0734,0.34404 -0.14067,0.68809 -0.23242,1.03213c-3.523,15.40395 -15.51404,27.75891 -24.75273,48.91066c-2.76152,6.32886 -5.17135,13.11339 -7.14845,19.30921l-5.96341,21.53097l-5.96341,-21.52791c-1.97404,-6.19736 -4.38693,-12.98035 -7.14845,-19.30921c-9.2387,-21.15176 -21.22515,-33.50672 -24.76497,-48.91066c-0.0734,-0.34404 -0.16361,-0.68809 -0.23242,-1.03213c-0.10704,-0.49848 -0.18655,-1.00155 -0.27064,-1.51379c-0.11009,-0.64068 -0.19572,-1.28596 -0.26453,-1.94193c-0.04587,-0.37616 -0.0948,-0.77983 -0.1315,-1.16516c-0.08563,-1.09023 -0.14832,-2.17435 -0.14832,-3.28599zM104.27575,205.11568c0,9.71577 7.87935,17.59971 17.589,17.59971c9.72189,0 17.59971,-7.88393 17.59971,-17.59971c0,-9.71577 -7.87935,-17.589 -17.59971,-17.589c-9.70965,0 -17.589,7.87323 -17.589,17.589z" data-paper-data="{&quot;isPathIcon&quot;:true}"></path></g></g></g></svg>